# Blender v3.6.5 OBJ File: 'untitled.blend'
# www.blender.org
mtllib promedex.mtl
o Plane
v -6.095981 0.000000 2.156498
v -2.139314 0.000000 2.156498
v -6.095981 0.000000 -2.244351
v -2.139314 0.000000 -2.244351
v -6.095981 2.057392 2.156498
v -2.139314 2.057392 2.156498
v -6.095981 2.057392 -2.244351
v -2.139314 2.057392 -2.244351
v -2.139314 0.000000 -1.505626
v -2.139314 1.536151 -1.505626
v -2.139314 0.000000 -0.998862
v -2.139314 1.536151 -0.998862
v -4.115073 0.000761 1.544638
v -4.115073 0.421362 1.544638
v -4.115073 0.000761 1.153594
v -4.115073 0.421362 1.153594
v -3.322257 0.000761 1.544638
v -3.322257 0.421362 1.544638
v -3.322257 0.000761 1.153594
v -3.322257 0.421362 1.153594
v -2.008885 0.000000 2.283204
v 2.102731 0.000000 2.283204
v -1.965572 0.000000 -2.557522
v 2.146044 0.000000 -2.557522
v -2.008885 2.139043 2.283204
v 2.102731 2.139043 2.283204
v -1.965572 2.139043 -2.557522
v 2.146044 2.139043 -2.557522
v -1.974950 0.000000 -1.509436
v -1.974950 1.592891 -1.509436
v -1.979814 1.592891 -0.965868
v -1.979814 0.000000 -0.965868
vt 0.829158 0.355655
vt 0.829158 0.409623
vt 0.708027 0.409623
vt 0.666925 0.355655
vt 0.829158 0.679173
vt 0.829158 0.968228
vt 0.666924 0.968228
vt 0.666924 0.679173
vt 0.829158 0.446645
vt 0.829158 0.677164
vt 0.666925 0.677164
vt 0.708027 0.446645
vt 0.993562 0.355655
vt 0.993562 0.677160
vt 0.831328 0.677160
vt 0.831328 0.355655
vt 0.658317 1.000000
vt 0.496083 1.000000
vt 0.496083 0.711315
vt 0.658317 0.711315
vt 0.976238 0.000000
vt 0.976238 0.321509
vt 0.665329 0.321519
vt 0.665329 0.000009
vt 0.000000 0.679857
vt 0.000000 0.358348
vt 0.311999 0.358348
vt 0.311999 0.588866
vt 0.311999 0.679857
vt 0.358246 0.742049
vt 0.358246 0.711321
vt 0.389081 0.711321
vt 0.389081 0.742049
vt 0.269337 0.739712
vt 0.236171 0.739712
vt 0.236171 0.681867
vt 0.269337 0.681867
vt 0.391251 0.742049
vt 0.391251 0.711322
vt 0.422086 0.711322
vt 0.422086 0.742049
vt 0.234002 0.739786
vt 0.200836 0.739786
vt 0.200836 0.681867
vt 0.234002 0.681867
vt 0.325241 0.769039
vt 0.325241 0.711321
vt 0.356077 0.711322
vt 0.356077 0.769040
vt 0.302342 0.681867
vt 0.302342 0.739787
vt 0.271506 0.739787
vt 0.271506 0.681867
vt 1.000000 0.679169
vt 1.000000 0.979543
vt 0.831328 0.979543
vt 0.831328 0.679169
vt 0.664755 0.355655
vt 0.664755 0.709305
vt 0.496083 0.709305
vt 0.496083 0.355655
vt 0.493914 0.632740
vt 0.493914 0.709312
vt 0.325241 0.709312
vt 0.368308 0.632740
vt 0.168672 0.981857
vt 0.000000 0.981857
vt 0.000000 0.681867
vt 0.168672 0.681867
vt 0.493914 0.355655
vt 0.493914 0.593028
vt 0.368308 0.593028
vt 0.325241 0.355655
vt 0.323072 0.000000
vt 0.323072 0.353659
vt 0.000000 0.356338
vt 0.000000 0.002679
vt 0.337819 0.237365
vt 0.335526 0.000000
vt 0.659744 0.000000
vt 0.663159 0.353645
vt 0.338942 0.353645
vt 0.338202 0.277076
vt 0.185973 0.686012
vt 0.198666 0.681867
vt 0.198666 0.798237
vt 0.185973 0.798237
vt 0.325241 0.276798
vt 0.325241 0.239775
vt 0.183804 0.686012
vt 0.183804 0.798237
vt 0.170842 0.798237
vt 0.170842 0.681867
vt 0.304867 0.719274
vt 0.304511 0.682253
vt 0.317797 0.681867
vt 0.317797 0.721579
vn -1.0000 0.0000 0.0000
vn 0.0000 0.0000 1.0000
vn 1.0000 0.0000 0.0000
vn 0.0000 0.0000 -1.0000
vn 0.0000 -1.0000 0.0000
vn 0.0000 1.0000 0.0000
vn -1.0000 0.0000 -0.0089
vn 1.0000 0.0000 0.0089
vn 0.2026 0.0000 -0.9793
vn 0.0232 0.0000 0.9997
vn 0.3306 -0.9438 0.0015
usemtl My_UV-texture_UVMAT
s off
f 4/1/1 9/2/1 10/3/1 8/4/1
f 3/5/2 4/6/2 8/7/2 7/8/2
f 11/9/1 2/10/1 6/11/1 12/12/1
f 1/13/3 3/14/3 7/15/3 5/16/3
f 1/17/4 5/18/4 6/19/4 2/20/4
f 10/3/1 12/12/1 6/11/1 8/4/1
f 5/21/5 7/22/5 8/23/5 6/24/5
f 3/25/6 1/26/6 2/27/6 11/28/6 4/29/6
f 13/30/1 14/31/1 16/32/1 15/33/1
f 15/34/4 16/35/4 20/36/4 19/37/4
f 19/38/3 20/39/3 18/40/3 17/41/3
f 17/42/2 18/43/2 14/44/2 13/45/2
f 15/46/5 19/47/5 17/48/5 13/49/5
f 20/50/6 16/51/6 14/52/6 18/53/6
f 23/54/2 24/55/2 28/56/2 27/57/2
f 24/58/7 22/59/7 26/60/7 28/61/7
f 29/62/8 23/63/8 27/64/8 30/65/8
f 21/66/4 25/67/4 26/68/4 22/69/4
f 21/70/8 32/71/8 31/72/8 25/73/8
f 31/72/8 30/65/8 27/64/8 25/73/8
f 28/74/5 26/75/5 25/76/5 27/77/5
f 32/78/6 21/79/6 22/80/6 24/81/6
f 24/81/6 23/82/6 29/83/6 32/78/6
f 12/84/9 31/85/9 32/86/9 11/87/9
f 29/83/6 9/88/6 11/89/6 32/78/6
f 10/90/10 9/91/10 29/92/10 30/93/10
f 12/94/11 10/95/11 30/96/11 31/97/11
